# xmcd
#
# Track frame offsets:
#	150
#	42670
#	75292
#	90957
#	128902
#	133848
#	154478
#	170672
#	182070
#	203660
#
# Disc length: 3221 seconds
#
# Revision: 1
# Processed by: cddbd v1.5.2PL0 Copyright (c) Steve Scherf et al.
# Submitted via: audiograbber 1.83.01
#
DISCID=820c930a
DTITLE=Grateful Dead - 69-12-31 Boston Tea Party, Boston MA
DYEAR=1900
DGENRE=
TTITLE0=High Time
TTITLE1=Cumberland Blues
TTITLE2=Big Boy Pete
TTITLE3=Not Fade Away
TTITLE4=Merry Go Round Tuning > Dark Star Tease
TTITLE5=Seasons Of My Heart
TTITLE6=The Race Is On
TTITLE7=Silver Threads and Golden Needles
TTITLE8=Slewfoot
TTITLE9=Dancing In The Streets
EXTD=
EXTT0=
EXTT1=
EXTT2=
EXTT3=
EXTT4=
EXTT5=
EXTT6=
EXTT7=
EXTT8=
EXTT9=
PLAYORDER=
